<?xml version="1.0" encoding="UTF-8" standalone="no"?>
<svg width="45px" height="33px" viewBox="0 0 45 33" version="1.1" xmlns="http://www.w3.org/2000/svg" xmlns:xlink="http://www.w3.org/1999/xlink" xmlns:sketch="http://www.bohemiancoding.com/sketch/ns">
    <!-- Generator: Sketch 3.2.2 (9983) - http://www.bohemiancoding.com/sketch -->
    <title>Desktop 3</title>
    <desc>Created with Sketch.</desc>
    <defs></defs>
    <g id="Page-1" stroke="none" stroke-width="1" fill="none" fill-rule="evenodd" sketch:type="MSPage">
        <g id="Desktop-3" sketch:type="MSArtboardGroup" transform="translate(-152.000000, -798.000000)" fill="#D0E6FF">
            <path d="M187.632615,806.46 C186.766769,806.876 185.828923,807.164 184.848615,807.29 C185.851077,806.64 186.615385,805.61 186.982769,804.382 C186.044923,804.984 185.007385,805.422 183.896,805.656 C183.017231,804.64 181.754462,804 180.362462,804 C177.687385,804 175.516308,806.352 175.516308,809.25 C175.516308,809.664 175.560615,810.062 175.64,810.446 C171.608,810.226 168.039385,808.14 165.644923,804.96 C165.225846,805.734 164.987692,806.64 164.987692,807.602 C164.987692,809.422 165.846154,811.032 167.144,811.968 C166.350154,811.946 165.608,811.704 164.952615,811.312 L164.952615,811.376 C164.952615,813.922 166.625231,816.046 168.838769,816.532 C168.434462,816.648 168.002462,816.71 167.563077,816.71 C167.252923,816.71 166.950154,816.68 166.647385,816.618 C167.267692,818.704 169.054769,820.218 171.176,820.266 C169.516308,821.672 167.424615,822.508 165.153846,822.508 C164.764308,822.508 164.382154,822.484 164,822.438 C166.148923,823.93 168.694769,824.796 171.434462,824.796 C180.347692,824.796 185.223385,816.796 185.223385,809.86 L185.208615,809.18 C186.161231,808.438 186.982769,807.516 187.632615,806.46 L187.632615,806.46 Z" id="social19" sketch:type="MSShapeGroup"></path>
        </g>
    </g>
</svg>